<svg width="160" height="160" viewBox="0 0 160 160" fill="none" xmlns="http://www.w3.org/2000/svg">
<g clip-path="url(#clip0_899_3400)">
<path d="M126.667 0H33.3333C24.496 0.0105857 16.0237 3.52588 9.7748 9.7748C3.52588 16.0237 0.0105857 24.496 0 33.3333L0 126.667C0.0105857 135.504 3.52588 143.976 9.7748 150.225C16.0237 156.474 24.496 159.989 33.3333 160H126.667C135.504 159.989 143.976 156.474 150.225 150.225C156.474 143.976 159.989 135.504 160 126.667V33.3333C159.989 24.496 156.474 16.0237 150.225 9.7748C143.976 3.52588 135.504 0.0105857 126.667 0V0ZM33.3333 13.3333H126.667C131.971 13.3333 137.058 15.4405 140.809 19.1912C144.56 22.9419 146.667 28.029 146.667 33.3333V126.667C146.655 129.637 145.971 132.565 144.667 135.233L83.58 74.1467C80.4846 71.0504 76.8096 68.5943 72.7648 66.9186C68.72 65.2429 64.3848 64.3804 60.0067 64.3804C55.6285 64.3804 51.2933 65.2429 47.2485 66.9186C43.2038 68.5943 39.5287 71.0504 36.4333 74.1467L13.3333 97.24V33.3333C13.3333 28.029 15.4405 22.9419 19.1912 19.1912C22.9419 15.4405 28.029 13.3333 33.3333 13.3333ZM33.3333 146.667C28.029 146.667 22.9419 144.56 19.1912 140.809C15.4405 137.058 13.3333 131.971 13.3333 126.667V116.093L45.8533 83.5733C47.7107 81.7148 49.916 80.2405 52.3434 79.2346C54.7707 78.2287 57.3725 77.7109 60 77.7109C62.6275 77.7109 65.2293 78.2287 67.6566 79.2346C70.084 80.2405 72.2893 81.7148 74.1467 83.5733L135.233 144.667C132.565 145.971 129.637 146.655 126.667 146.667H33.3333Z" fill="white"/>
<path d="M106.668 69.9977C111.282 69.9977 115.794 68.6292 119.631 66.0653C123.468 63.5014 126.459 59.8572 128.225 55.5936C129.991 51.33 130.453 46.6385 129.553 42.1122C128.652 37.586 126.43 33.4284 123.167 30.1652C119.904 26.902 115.746 24.6797 111.22 23.7793C106.693 22.879 102.002 23.3411 97.7383 25.1071C93.4747 26.8732 89.8305 29.8639 87.2666 33.701C84.7027 37.5382 83.3342 42.0494 83.3342 46.6643C83.3342 52.8527 85.7926 58.7876 90.1684 63.1635C94.5443 67.5393 100.479 69.9977 106.668 69.9977ZM106.668 36.6643C108.645 36.6643 110.579 37.2508 112.223 38.3496C113.868 39.4485 115.149 41.0102 115.906 42.8375C116.663 44.6648 116.861 46.6754 116.475 48.6152C116.09 50.5551 115.137 52.3369 113.739 53.7354C112.34 55.1339 110.558 56.0863 108.618 56.4722C106.679 56.858 104.668 56.66 102.841 55.9031C101.013 55.1463 99.4517 53.8645 98.3529 52.22C97.2541 50.5755 96.6676 48.6422 96.6676 46.6643C96.6676 44.0122 97.7211 41.4686 99.5965 39.5933C101.472 37.7179 104.015 36.6643 106.668 36.6643Z" fill="white"/>
</g>
<defs>
<clipPath id="clip0_899_3400">
<rect width="160" height="160" fill="white"/>
</clipPath>
</defs>
</svg>
