<svg width="30" height="27" viewBox="0 0 30 27" fill="none" xmlns="http://www.w3.org/2000/svg">
<path d="M26.9145 10.2854H8.82707L13.8441 5.2683C14.423 4.68973 14.7483 3.90493 14.7485 3.08652C14.7487 2.26812 14.4237 1.48316 13.8452 0.904322C13.2666 0.325487 12.4818 0.000192969 11.6634 8.58262e-08C10.845 -0.000192797 10.06 0.324732 9.4812 0.903294L2.10472 8.27978C0.75689 9.63131 0 11.4622 0 13.3709C0 15.2796 0.75689 17.1105 2.10472 18.462L9.4812 25.8385C10.06 26.4171 10.845 26.742 11.6634 26.7418C12.4818 26.7416 13.2666 26.4163 13.8452 25.8375C14.4237 25.2587 14.7487 24.4737 14.7485 23.6553C14.7483 22.8369 14.423 22.0521 13.8441 21.4735L8.82707 16.4564H26.9145C27.7328 16.4564 28.5176 16.1314 29.0963 15.5527C29.6749 14.9741 30 14.1892 30 13.3709C30 12.5526 29.6749 11.7678 29.0963 11.1891C28.5176 10.6105 27.7328 10.2854 26.9145 10.2854Z" fill="#FFD933"/>
</svg>
