<svg width="23" height="23" viewBox="0 0 23 23" fill="none" xmlns="http://www.w3.org/2000/svg">
<path d="M4.59193 1.15203V2.29732H1.14575C0.510524 2.29985 -0.00240564 2.8166 1.96795e-05 3.45158V21.8435C-0.00366177 22.4793 0.509642 22.9975 1.14575 23H21.8453C22.4849 23.0024 23.0037 22.4828 23 21.8435V3.45158C23.0024 2.81309 22.484 2.29488 21.8453 2.29732H18.3991V1.15203C18.3791 -0.392762 16.08 -0.375237 16.0964 1.15203V2.29732H6.89237V1.15203C6.89474 -0.385107 4.59475 -0.382878 4.59193 1.15203ZM2.30046 4.59687H4.59193V5.75338C4.59193 7.29194 6.89237 7.2701 6.89237 5.75338V4.59687H16.0964V5.75338C16.0964 7.30571 18.3991 7.26912 18.3991 5.75338V4.59687H20.6995V8.05293H2.30046V4.59687ZM2.30046 10.3435H20.6995V20.6982H2.30046V10.3435ZM4.59193 11.4978C3.15772 11.4978 3.06596 13.7996 4.59193 13.7996H6.89237C8.45881 13.802 8.49485 11.5025 6.89237 11.4978H4.59193ZM10.3498 11.4978C8.81819 11.5022 8.78219 13.802 10.3498 13.7996H12.6502C14.1908 13.802 14.2807 11.5026 12.6502 11.4978H10.3498ZM16.0964 11.4978C14.5861 11.5022 14.5681 13.802 16.0964 13.7996H18.3991C19.9238 13.7996 20.0127 11.5025 18.3991 11.4978H16.0964ZM4.59193 16.0991C3.08959 16.0991 3.0896 18.3987 4.59193 18.3987H6.89237C8.40136 18.4028 8.45222 16.1025 6.89237 16.0991H4.59193ZM10.3498 16.0991C8.76184 16.0991 8.78893 18.3987 10.3498 18.3987H12.6502C14.1259 18.4028 14.1515 16.0991 12.6502 16.0991H10.3498ZM16.0964 16.0991C14.5644 16.1024 14.5642 18.3987 16.0964 18.3987H18.3991C19.9225 18.4029 19.9806 16.1025 18.3991 16.0991H16.0964Z" fill="#272727"/>
</svg>
