<svg width="80" height="80" viewBox="0 0 80 80" fill="none" xmlns="http://www.w3.org/2000/svg">
<circle cx="40" cy="40" r="40" fill="#FF8254"/>
<g clip-path="url(#clip0_899_3438)">
<path d="M51.6667 26.6667H50.82L47.18 21.9467C46.7109 21.343 46.1105 20.854 45.4244 20.5168C44.7384 20.1795 43.9845 20.0028 43.22 20H36.78C36.0155 20.0028 35.2616 20.1795 34.5756 20.5168C33.8895 20.854 33.2891 21.343 32.82 21.9467L29.18 26.6667H28.3333C26.124 26.6693 24.0059 27.5481 22.4437 29.1104C20.8815 30.6726 20.0026 32.7907 20 35V51.6667C20.0026 53.876 20.8815 55.9941 22.4437 57.5563C24.0059 59.1185 26.124 59.9974 28.3333 60H51.6667C53.876 59.9974 55.9941 59.1185 57.5563 57.5563C59.1185 55.9941 59.9974 53.876 60 51.6667V35C59.9974 32.7907 59.1185 30.6726 57.5563 29.1104C55.9941 27.5481 53.876 26.6693 51.6667 26.6667ZM35.46 23.9833C35.6161 23.7818 35.8162 23.6184 36.0449 23.5058C36.2736 23.3932 36.525 23.3342 36.78 23.3333H43.22C43.4749 23.3344 43.7262 23.3935 43.9549 23.5061C44.1836 23.6188 44.3837 23.7819 44.54 23.9833L46.61 26.6667H33.39L35.46 23.9833ZM56.6667 51.6667C56.6667 52.9927 56.1399 54.2645 55.2022 55.2022C54.2645 56.1399 52.9927 56.6667 51.6667 56.6667H28.3333C27.0073 56.6667 25.7355 56.1399 24.7978 55.2022C23.8601 54.2645 23.3333 52.9927 23.3333 51.6667V35C23.3333 33.6739 23.8601 32.4021 24.7978 31.4645C25.7355 30.5268 27.0073 30 28.3333 30H51.6667C52.9927 30 54.2645 30.5268 55.2022 31.4645C56.1399 32.4021 56.6667 33.6739 56.6667 35V51.6667Z" fill="white"/>
<path d="M40 33.3332C38.0222 33.3332 36.0888 33.9197 34.4443 35.0185C32.7998 36.1173 31.5181 37.6791 30.7612 39.5064C30.0043 41.3336 29.8063 43.3443 30.1922 45.2841C30.578 47.2239 31.5304 49.0057 32.9289 50.4043C34.3275 51.8028 36.1093 52.7552 38.0491 53.141C39.9889 53.5269 41.9996 53.3289 43.8268 52.572C45.6541 51.8151 47.2159 50.5334 48.3147 48.8889C49.4135 47.2444 50 45.311 50 43.3332C49.9974 40.6818 48.9429 38.1398 47.0681 36.265C45.1934 34.3903 42.6514 33.3358 40 33.3332ZM40 49.9999C38.6815 49.9999 37.3925 49.6089 36.2962 48.8763C35.1999 48.1438 34.3454 47.1026 33.8408 45.8844C33.3362 44.6662 33.2042 43.3258 33.4614 42.0326C33.7187 40.7394 34.3536 39.5515 35.286 38.6191C36.2183 37.6868 37.4062 37.0519 38.6994 36.7946C39.9926 36.5374 41.3331 36.6694 42.5512 37.174C43.7694 37.6786 44.8106 38.5331 45.5431 39.6294C46.2757 40.7257 46.6667 42.0147 46.6667 43.3332C46.6667 45.1013 45.9643 46.797 44.7141 48.0472C43.4638 49.2975 41.7681 49.9999 40 49.9999Z" fill="white"/>
</g>
<defs>
<clipPath id="clip0_899_3438">
<rect width="40" height="40" fill="white" transform="translate(20 20)"/>
</clipPath>
</defs>
</svg>
