<svg width="69" height="60" viewBox="0 0 69 60" fill="none" xmlns="http://www.w3.org/2000/svg">
<circle cx="7.05882" cy="7.05882" r="7.05882" fill="#FFD933"/>
<path fill-rule="evenodd" clip-rule="evenodd" d="M21.1765 7.05883C21.1765 5.10959 22.7567 3.52942 24.7059 3.52942H65.2942C67.2434 3.52942 68.8236 5.10959 68.8236 7.05883C68.8236 9.00807 67.2434 10.5882 65.2942 10.5882H24.7059C22.7567 10.5882 21.1765 9.00807 21.1765 7.05883Z" fill="#FFD933"/>
<circle cx="7.05882" cy="30" r="7.05882" fill="#FFD933"/>
<circle cx="7.05882" cy="52.9411" r="7.05882" fill="#FFD933"/>
<path fill-rule="evenodd" clip-rule="evenodd" d="M21.1765 30C21.1765 28.0508 22.7567 26.4706 24.7059 26.4706H65.2942C67.2434 26.4706 68.8236 28.0508 68.8236 30C68.8236 31.9492 67.2434 33.5294 65.2942 33.5294H24.7059C22.7567 33.5294 21.1765 31.9492 21.1765 30Z" fill="#FFD933"/>
<path fill-rule="evenodd" clip-rule="evenodd" d="M21.1765 52.9412C21.1765 50.9919 22.7567 49.4117 24.7059 49.4117H65.2942C67.2434 49.4117 68.8236 50.9919 68.8236 52.9412C68.8236 54.8904 67.2434 56.4706 65.2942 56.4706H24.7059C22.7567 56.4706 21.1765 54.8904 21.1765 52.9412Z" fill="#FFD933"/>
</svg>
