<svg width="64" height="64" viewBox="0 0 64 64" fill="none" xmlns="http://www.w3.org/2000/svg">
<path d="M46.9865 23.039H47.0105M47.0105 17.027V9.515M18.5045 62H10.1525C9.18351 62 8.20851 61.862 7.31751 61.481C4.41951 60.236 2.94651 58.589 2.26251 57.56C2.07688 57.275 1.98567 56.9387 2.00183 56.599C2.01798 56.2592 2.14068 55.9331 2.35251 55.667C5.71251 51.203 13.5005 48.509 18.5045 48.509M18.5195 62H26.8685C27.8405 62 28.8125 61.862 29.7035 61.481C32.6045 60.236 34.0745 58.589 34.7615 57.56C34.9471 57.275 35.0384 56.9387 35.0222 56.599C35.006 56.2592 34.8834 55.9331 34.6715 55.667C31.3115 51.203 23.5235 48.509 18.5195 48.509M61.9985 16.376C61.9985 24.314 55.2785 30.752 46.9865 30.752C46.0105 30.752 45.0425 30.662 44.0825 30.482C43.3925 30.353 43.0505 30.29 42.8075 30.326C42.5675 30.362 42.2255 30.542 41.5475 30.908C39.6055 31.9433 37.3703 32.2912 35.2055 31.895C36.0275 30.881 36.5855 29.666 36.8345 28.364C36.9845 27.569 36.6125 26.795 36.0545 26.228C33.4491 23.6102 31.9827 20.0694 31.9745 16.376C31.9745 8.438 38.6945 2 46.9865 2C55.2785 2 61.9985 8.438 61.9985 16.376ZM26.8535 32.867C26.8503 35.0747 25.9707 37.1908 24.4079 38.7502C22.8452 40.3095 20.7272 41.1846 18.5195 41.183C17.4259 41.1846 16.3426 40.9707 15.3316 40.5537C14.3206 40.1366 13.4017 39.5245 12.6272 38.7523C11.8528 37.9801 11.238 37.0629 10.818 36.0531C10.3981 35.0433 10.1811 33.9606 10.1795 32.867C10.1807 31.7731 10.3974 30.6901 10.8172 29.68C11.237 28.6699 11.8517 27.7523 12.6262 26.9798C13.4006 26.2073 14.3197 25.5949 15.3309 25.1776C16.3421 24.7604 17.4256 24.5464 18.5195 24.548C20.7277 24.5464 22.8462 25.4219 24.409 26.9819C25.9718 28.5419 26.8511 30.6588 26.8535 32.867Z" stroke="#FFD933" stroke-width="4" stroke-linecap="round" stroke-linejoin="round"/>
</svg>
