<svg width="20" height="20" viewBox="0 0 20 20" fill="none" xmlns="http://www.w3.org/2000/svg">
<path d="M15.0001 4.99999C14.8438 4.84376 14.6319 4.756 14.4109 4.756C14.19 4.756 13.978 4.84376 13.8218 4.99999L10.0001 8.82165L6.17843 4.99999C6.02215 4.84376 5.81023 4.756 5.58926 4.756C5.36829 4.756 5.15637 4.84376 5.00009 4.99999C4.84387 5.15626 4.7561 5.36818 4.7561 5.58915C4.7561 5.81012 4.84387 6.02205 5.00009 6.17832L8.82176 9.99999L5.00009 13.8217C4.84387 13.9779 4.7561 14.1898 4.7561 14.4108C4.7561 14.6318 4.84387 14.8437 5.00009 15C5.15637 15.1562 5.36829 15.244 5.58926 15.244C5.81023 15.244 6.02215 15.1562 6.17843 15L10.0001 11.1783L13.8218 15C13.978 15.1562 14.19 15.244 14.4109 15.244C14.6319 15.244 14.8438 15.1562 15.0001 15C15.1563 14.8437 15.2441 14.6318 15.2441 14.4108C15.2441 14.1898 15.1563 13.9779 15.0001 13.8217L11.1784 9.99999L15.0001 6.17832C15.1563 6.02205 15.2441 5.81012 15.2441 5.58915C15.2441 5.36818 15.1563 5.15626 15.0001 4.99999Z" fill="#262626"/>
</svg>
