<svg width="70" height="70" viewBox="0 0 70 70" fill="none" xmlns="http://www.w3.org/2000/svg">
<circle cx="35" cy="35" r="35" fill="#FF8254"/>
<g clip-path="url(#clip0_1401_3268)">
<path d="M35 40C40.5228 40 45 35.5228 45 30C45 24.4772 40.5228 20 35 20C29.4772 20 25 24.4772 25 30C25 35.5228 29.4772 40 35 40Z" stroke="white" stroke-width="4" stroke-linecap="round" stroke-linejoin="round"/>
<path d="M19.8418 48.7485C21.3786 46.0885 23.5884 43.8797 26.2491 42.344C28.9099 40.8084 31.9279 40 34.9999 40C38.072 40 41.09 40.8085 43.7507 42.3442C46.4114 43.8799 48.6212 46.0888 50.1579 48.7489" stroke="white" stroke-width="4" stroke-linecap="round" stroke-linejoin="round"/>
</g>
<defs>
<clipPath id="clip0_1401_3268">
<rect width="40" height="40" fill="white" transform="translate(15 15)"/>
</clipPath>
</defs>
</svg>
