<svg width="30" height="30" viewBox="0 0 30 30" fill="none" xmlns="http://www.w3.org/2000/svg">
<path d="M20.625 24.375C21.6605 24.375 22.5 23.5355 22.5 22.5C22.5 21.4645 21.6605 20.625 20.625 20.625C19.5895 20.625 18.75 21.4645 18.75 22.5C18.75 23.5355 19.5895 24.375 20.625 24.375Z" fill="#FFD933"/>
<path d="M27.9159 22.0116C27.3367 20.5358 26.3371 19.2625 25.0411 18.3495C23.7451 17.4364 22.2096 16.9237 20.625 16.875C19.0404 16.9237 17.5049 17.4364 16.2089 18.3495C14.9129 19.2625 13.9133 20.5358 13.3341 22.0116L13.125 22.5L13.3341 22.9894C13.9135 24.4649 14.9131 25.738 16.2091 26.6509C17.5051 27.5638 19.0405 28.0763 20.625 28.125C22.2095 28.0763 23.7449 27.5638 25.0409 26.6509C26.3369 25.738 27.3365 24.4649 27.9159 22.9894L28.125 22.5L27.9159 22.0116ZM20.625 26.25C19.8833 26.25 19.1583 26.0301 18.5416 25.618C17.9249 25.206 17.4443 24.6203 17.1605 23.9351C16.8766 23.2498 16.8024 22.4958 16.9471 21.7684C17.0917 21.041 17.4489 20.3728 17.9734 19.8484C18.4978 19.3239 19.166 18.9667 19.8934 18.8221C20.6208 18.6774 21.3748 18.7516 22.0601 19.0355C22.7453 19.3193 23.331 19.7999 23.743 20.4166C24.1551 21.0333 24.375 21.7583 24.375 22.5C24.3738 23.4942 23.9783 24.4473 23.2753 25.1503C22.5723 25.8533 21.6192 26.2488 20.625 26.25Z" fill="#FFD933"/>
<path d="M7.5 8.4375C8.01777 8.4375 8.4375 8.01777 8.4375 7.5C8.4375 6.98223 8.01777 6.5625 7.5 6.5625C6.98223 6.5625 6.5625 6.98223 6.5625 7.5C6.5625 8.01777 6.98223 8.4375 7.5 8.4375Z" fill="#FFD933"/>
<path d="M7.5 15.9375C8.01777 15.9375 8.4375 15.5178 8.4375 15C8.4375 14.4822 8.01777 14.0625 7.5 14.0625C6.98223 14.0625 6.5625 14.4822 6.5625 15C6.5625 15.5178 6.98223 15.9375 7.5 15.9375Z" fill="#FFD933"/>
<path d="M7.5 23.4375C8.01777 23.4375 8.4375 23.0178 8.4375 22.5C8.4375 21.9822 8.01777 21.5625 7.5 21.5625C6.98223 21.5625 6.5625 21.9822 6.5625 22.5C6.5625 23.0178 6.98223 23.4375 7.5 23.4375Z" fill="#FFD933"/>
<path d="M4.6875 19.6875H11.25V17.8125H4.6875V12.1875H19.6875V15H21.5625V4.6875C21.5625 4.19022 21.365 3.71331 21.0133 3.36167C20.6617 3.01004 20.1848 2.8125 19.6875 2.8125H4.6875C4.19022 2.8125 3.71331 3.01004 3.36167 3.36167C3.01004 3.71331 2.8125 4.19022 2.8125 4.6875V25.3125C2.8125 25.8098 3.01004 26.2867 3.36167 26.6383C3.71331 26.99 4.19022 27.1875 4.6875 27.1875H11.25V25.3125H4.6875V19.6875ZM4.6875 4.6875H19.6875V10.3125H4.6875V4.6875Z" fill="#FFD933" stroke="#FFD933" stroke-width="0.5"/>
</svg>
