<svg width="19" height="22" viewBox="0 0 19 22" fill="none" xmlns="http://www.w3.org/2000/svg">
<path d="M18.3214 3.4375H14.8276L13.3857 0.999023C12.9819 0.379285 12.3585 0 11.646 0H7.35402C6.64152 0 5.97991 0.379285 5.61518 0.999023L4.17237 3.4375H0.678571C0.302176 3.4375 0 3.74387 0 4.125V4.8125C0 5.19492 0.302176 5.5 0.678571 5.5H1.35714V19.25C1.35714 20.7689 2.57221 22 4.07143 22H14.9286C16.4278 22 17.6429 20.7689 17.6429 19.25V5.5H18.3214C18.6989 5.5 19 5.19492 19 4.8125V4.125C19 3.74387 18.6989 3.4375 18.3214 3.4375ZM7.2904 2.18625C7.33281 2.11105 7.41763 2.0625 7.5067 2.0625H11.4933C11.5834 2.0625 11.6682 2.11084 11.7107 2.18604L12.4518 3.4375H6.54821L7.2904 2.18625ZM14.9286 19.9375H4.07143C3.69665 19.9375 3.39286 19.6297 3.39286 19.25V5.5H15.6071V19.25C15.6071 19.6281 15.3018 19.9375 14.9286 19.9375ZM9.5 17.875C9.87508 17.875 10.1786 17.5675 10.1786 17.1875V8.25C10.1786 7.86998 9.87508 7.5625 9.5 7.5625C9.12492 7.5625 8.82143 7.87187 8.82143 8.25V17.1875C8.82143 17.5656 9.12679 17.875 9.5 17.875ZM6.10714 17.875C6.48036 17.875 6.78571 17.5656 6.78571 17.1875V8.25C6.78571 7.86998 6.48222 7.5625 6.10714 7.5625C5.73206 7.5625 5.42857 7.87187 5.42857 8.25V17.1875C5.42857 17.5656 5.73393 17.875 6.10714 17.875ZM12.8929 17.875C13.2679 17.875 13.5714 17.5675 13.5714 17.1875V8.25C13.5714 7.86998 13.2679 7.5625 12.8929 7.5625C12.5178 7.5625 12.2143 7.87187 12.2143 8.25V17.1875C12.2143 17.5656 12.5196 17.875 12.8929 17.875Z" fill="#FF0101"/>
</svg>
