<svg width="25" height="25" viewBox="0 0 25 25" fill="none" xmlns="http://www.w3.org/2000/svg">
<path fill-rule="evenodd" clip-rule="evenodd" d="M18.7972 1.44313C19.1586 1.29307 19.5462 1.21582 19.9375 1.21582C20.3289 1.21582 20.7164 1.29307 21.0779 1.44313C21.4391 1.5931 21.7673 1.81286 22.0434 2.08981C22.0433 2.08964 22.0436 2.08998 22.0434 2.08981L22.9113 2.95765C22.9115 2.95786 22.9117 2.95807 22.9119 2.95828C22.9119 2.95824 22.912 2.95832 22.9119 2.95828C23.1885 3.23439 23.4081 3.56243 23.5579 3.92341C23.7078 4.28473 23.785 4.67206 23.785 5.06324C23.785 5.45442 23.7078 5.84176 23.5579 6.20307C23.4081 6.5641 23.1886 6.89206 22.9119 7.16819C22.9117 7.1684 22.9115 7.16862 22.9113 7.16884L14.1173 15.9675C13.5587 16.5261 12.8008 16.8398 12.0117 16.8398H9.0284C8.54902 16.8398 8.1604 16.4512 8.1604 15.9718V13.0073C8.1604 13.0072 8.1604 13.0074 8.1604 13.0073C8.16023 12.6166 8.23703 12.2294 8.38641 11.8685C8.53579 11.5075 8.75482 11.1795 9.03099 10.9032C9.03085 10.9033 9.03112 10.903 9.03099 10.9032L17.8311 2.09031C18.1073 1.81338 18.4359 1.59309 18.7972 1.44313ZM19.9375 2.95181C19.7746 2.95181 19.6133 2.98397 19.4628 3.04644C19.3123 3.10891 19.1756 3.20047 19.0606 3.31586L10.2594 12.1298C10.1444 12.2449 10.0527 12.3819 9.99048 12.5323C9.92826 12.6826 9.89629 12.8437 9.89639 13.0065L9.89639 15.1038H12.0117C12.3405 15.1038 12.6566 14.9731 12.8895 14.7402C12.8894 14.7402 12.8895 14.7402 12.8895 14.7402L21.6852 5.93981C21.8005 5.8248 21.892 5.68817 21.9544 5.53776C22.0168 5.38734 22.049 5.22609 22.049 5.06324C22.049 4.90039 22.0168 4.73914 21.9544 4.58873C21.892 4.43831 21.8005 4.30168 21.6852 4.18667L20.8144 3.31586C20.6994 3.20047 20.5627 3.10891 20.4123 3.04644C20.2618 2.98397 20.1005 2.95181 19.9375 2.95181Z" fill="black"/>
<path d="M22.0434 2.08981C21.7673 1.81286 21.4391 1.5931 21.0779 1.44313C20.7164 1.29307 20.3289 1.21582 19.9375 1.21582C19.5462 1.21582 19.1586 1.29307 18.7972 1.44313C18.4359 1.59309 18.1073 1.81338 17.8311 2.09031L9.03099 10.9032M22.0434 2.08981C22.0433 2.08964 22.0436 2.08998 22.0434 2.08981ZM22.0434 2.08981L22.9113 2.95765C22.9115 2.95786 22.9117 2.95807 22.9119 2.95828M22.9119 2.95828C22.9119 2.95824 22.912 2.95832 22.9119 2.95828ZM22.9119 2.95828C23.1885 3.23439 23.4081 3.56243 23.5579 3.92341C23.7078 4.28473 23.785 4.67206 23.785 5.06324C23.785 5.45442 23.7078 5.84176 23.5579 6.20307C23.4081 6.5641 23.1886 6.89206 22.9119 7.16819C22.9117 7.1684 22.9115 7.16862 22.9113 7.16884L14.1173 15.9675C13.5587 16.5261 12.8008 16.8398 12.0117 16.8398H9.0284C8.54902 16.8398 8.1604 16.4512 8.1604 15.9718V13.0073M8.1604 13.0073C8.1604 13.0074 8.1604 13.0072 8.1604 13.0073ZM8.1604 13.0073C8.16023 12.6166 8.23703 12.2294 8.38641 11.8685C8.53579 11.5075 8.75482 11.1795 9.03099 10.9032M9.03099 10.9032C9.03085 10.9033 9.03112 10.903 9.03099 10.9032ZM12.8895 14.7402C12.6566 14.9731 12.3405 15.1038 12.0117 15.1038H9.89639L9.89639 13.0065C9.89629 12.8437 9.92826 12.6826 9.99048 12.5323C10.0527 12.3819 10.1444 12.2449 10.2594 12.1298L19.0606 3.31586C19.1756 3.20047 19.3123 3.10891 19.4628 3.04644C19.6133 2.98397 19.7746 2.95181 19.9375 2.95181C20.1005 2.95181 20.2618 2.98397 20.4123 3.04644C20.5627 3.10891 20.6994 3.20047 20.8144 3.31586L21.6852 4.18667C21.8005 4.30168 21.892 4.43831 21.9544 4.58873C22.0168 4.73914 22.049 4.90039 22.049 5.06324C22.049 5.22609 22.0168 5.38734 21.9544 5.53776C21.892 5.68817 21.8005 5.8248 21.6852 5.93981L12.8895 14.7402ZM12.8895 14.7402C12.8894 14.7402 12.8895 14.7402 12.8895 14.7402Z" stroke="black" stroke-width="0.5" stroke-linecap="round" stroke-linejoin="round"/>
<path fill-rule="evenodd" clip-rule="evenodd" d="M6.90178 3.13595C5.5798 3.31367 4.79833 3.6496 4.2239 4.22402C3.64947 4.79845 3.31354 5.57992 3.13582 6.9019C2.95475 8.24881 2.95291 10.021 2.95291 12.5C2.95291 14.979 2.95475 16.7513 3.13582 18.0982C3.31354 19.4202 3.64947 20.2016 4.2239 20.7761C4.79833 21.3505 5.5798 21.6864 6.90178 21.8641C8.24868 22.0452 10.0209 22.0471 12.4999 22.0471C14.9789 22.0471 16.7512 22.0452 18.0981 21.8641C19.42 21.6864 20.2015 21.3505 20.7759 20.7761C21.3504 20.2016 21.6863 19.4204 21.864 18.0986C22.0451 16.7519 22.0469 14.9796 22.0469 12.5C22.0469 12.0207 22.4355 11.632 22.9149 11.632C23.3943 11.632 23.7829 12.0207 23.7829 12.5V12.566C23.7829 14.9651 23.7829 16.8541 23.5845 18.3299C23.3809 19.8442 22.9542 21.0528 22.0035 22.0036C21.0527 22.9544 19.8437 23.3811 18.3294 23.5847C16.8534 23.7831 14.9644 23.7831 12.5658 23.783H12.434C10.0354 23.7831 8.14645 23.7831 6.67048 23.5847C5.15611 23.3811 3.94716 22.9544 2.99637 22.0036C2.04558 21.0528 1.6189 19.8439 1.41531 18.3295C1.21689 16.8535 1.2169 14.9645 1.21692 12.5659V12.4342C1.2169 10.0355 1.21689 8.14657 1.41531 6.67061C1.6189 5.15623 2.04558 3.94728 2.99637 2.99649C3.94716 2.0457 5.15611 1.61902 6.67048 1.41543C8.14645 1.21701 10.0354 1.21702 12.434 1.21704L12.4999 1.21704C12.9793 1.21704 13.3679 1.60566 13.3679 2.08504C13.3679 2.56442 12.9793 2.95303 12.4999 2.95303C10.0209 2.95303 8.24868 2.95488 6.90178 3.13595Z" fill="black" stroke="black" stroke-linecap="round" stroke-linejoin="round"/>
<path fill-rule="evenodd" clip-rule="evenodd" d="M12.4181 1L12.5 1C13.0992 1 13.585 1.48577 13.585 2.085C13.585 2.68422 13.0992 3.16999 12.5 3.16999C10.0148 3.16999 8.25984 3.1723 6.93077 3.35097C5.63293 3.52544 4.90484 3.85 4.37742 4.37742C3.85 4.90484 3.52544 5.63293 3.35097 6.93077C3.1723 8.25984 3.16999 10.0148 3.16999 12.5C3.16999 14.9852 3.1723 16.7402 3.35097 18.0692C3.52544 19.3671 3.85 20.0952 4.37742 20.6226C4.90484 21.15 5.63293 21.4746 6.93077 21.649C8.25984 21.8277 10.0148 21.83 12.5 21.83C14.9852 21.83 16.7402 21.8277 18.0692 21.649C19.3671 21.4746 20.0952 21.15 20.6226 20.6226C21.15 20.0951 21.4746 19.3673 21.649 18.0696C21.8277 16.7407 21.83 14.9858 21.83 12.5C21.83 11.9008 22.3158 11.415 22.915 11.415C23.5142 11.415 24 11.9008 24 12.5V12.582C24 14.9678 24 16.8686 23.7997 18.3588C23.5928 19.8971 23.1548 21.1592 22.157 22.157C21.1591 23.1549 19.8967 23.5929 18.3583 23.7997C16.868 24 14.9672 24 12.5819 24H12.4181C10.0328 24 8.13202 24 6.64165 23.7997C5.10329 23.5929 3.84088 23.1549 2.84301 22.157C1.84514 21.1591 1.40714 19.8967 1.20033 18.3583C0.999969 16.868 0.999983 14.9672 1 12.5819V12.4181C0.999983 10.0328 0.999969 8.13202 1.20033 6.64165C1.40714 5.10329 1.84514 3.84088 2.84301 2.84301C3.84088 1.84514 5.10329 1.40714 6.64165 1.20033C8.13202 0.999969 10.0328 0.999983 12.4181 1ZM12.4341 1.434C10.0297 1.43398 8.1577 1.43442 6.69948 1.63045C5.20909 1.83081 4.05361 2.24617 3.14989 3.14989C2.24617 4.05361 1.83081 5.20909 1.63045 6.69948C1.43442 8.1577 1.43398 10.0297 1.434 12.4341V12.5659C1.43398 14.9703 1.43442 16.8423 1.63045 18.3005C1.83081 19.7909 2.24617 20.9464 3.14989 21.8501C4.05361 22.7538 5.20909 23.1692 6.69948 23.3695C8.1577 23.5656 10.0297 23.566 12.4341 23.566H12.5659C14.9703 23.566 16.8423 23.5656 18.3005 23.3695C19.7909 23.1692 20.9464 22.7538 21.8501 21.8501C22.7538 20.9464 23.1692 19.7913 23.3695 18.301C23.5656 16.8429 23.566 14.9709 23.566 12.5659V12.5C23.566 12.1405 23.2745 11.849 22.915 11.849C22.5555 11.849 22.264 12.1405 22.264 12.5C22.264 14.9734 22.2626 16.7629 22.0792 18.1275C21.8982 19.4734 21.5509 20.308 20.9295 20.9295C20.308 21.5509 19.4732 21.8982 18.127 22.0792C16.7623 22.2626 14.9728 22.264 12.5 22.264C10.0272 22.264 8.23769 22.2626 6.87295 22.0792C5.52683 21.8982 4.69197 21.5509 4.07054 20.9295C3.44911 20.308 3.10181 19.4732 2.92084 18.1271C2.73737 16.7623 2.73599 14.9728 2.73599 12.5C2.73599 10.0272 2.73737 8.23769 2.92084 6.87295C3.10181 5.52683 3.44911 4.69197 4.07054 4.07054C4.69197 3.44911 5.52683 3.10181 6.87295 2.92084C8.23769 2.73737 10.0272 2.73599 12.5 2.73599C12.8595 2.73599 13.151 2.44453 13.151 2.085C13.151 1.72546 12.8595 1.434 12.5 1.434L12.4341 1.434Z" fill="black"/>
</svg>
