<svg width="70" height="70" viewBox="0 0 70 70" fill="none" xmlns="http://www.w3.org/2000/svg">
<circle cx="35" cy="35" r="35" fill="#FF8254"/>
<path d="M25.0002 48.3333H45.0002C48.6668 48.3333 51.6668 45.3333 51.6668 41.6667V30C51.6668 26.3333 48.6668 23.3333 45.0002 23.3333V21.6667C45.0002 20.6667 44.3335 20 43.3335 20C42.3335 20 41.6668 20.6667 41.6668 21.6667V23.3333H28.3335V21.6667C28.3335 20.6667 27.6668 20 26.6668 20C25.6668 20 25.0002 20.6667 25.0002 21.6667V23.3333C21.3335 23.3333 18.3335 26.3333 18.3335 30V41.6667C18.3335 45.3333 21.3335 48.3333 25.0002 48.3333ZM21.6668 30C21.6668 28.1667 23.1668 26.6667 25.0002 26.6667C25.0002 27.6667 25.6668 28.3333 26.6668 28.3333C27.6668 28.3333 28.3335 27.6667 28.3335 26.6667H41.6668C41.6668 27.6667 42.3335 28.3333 43.3335 28.3333C44.3335 28.3333 45.0002 27.6667 45.0002 26.6667C46.8335 26.6667 48.3335 28.1667 48.3335 30V41.6667C48.3335 43.5 46.8335 45 45.0002 45H25.0002C23.1668 45 21.6668 43.5 21.6668 41.6667V30Z" fill="white"/>
<path d="M29.1668 36.5L31.5002 37.8333L30.3335 40.3333C30.0002 41 30.1668 41.8333 30.8335 42.3333C31.5002 42.8333 32.3335 42.8333 33.0002 42.1667L35.0002 40.3333L37.0002 42.1667C37.3335 42.5 37.6668 42.6667 38.1668 42.6667C38.5002 42.6667 38.8335 42.5 39.1668 42.3333C39.8335 41.8333 40.0002 41 39.6668 40.3333L38.5002 37.8333L40.8335 36.5C41.5002 36.1667 41.8335 35.3333 41.6668 34.5C41.5002 33.8333 40.6668 33.3333 39.8335 33.3333L37.1668 33.6667L36.6668 31C36.5002 30.1667 35.8335 29.6667 35.0002 29.6667C34.1668 29.6667 33.5002 30.1667 33.3335 31L32.8335 33.6667L30.1668 33.3333C29.3335 33.3333 28.6668 33.6667 28.3335 34.5C28.1668 35.3333 28.5002 36 29.1668 36.5Z" fill="white"/>
</svg>
