<svg width="30" height="30" viewBox="0 0 30 30" fill="none" xmlns="http://www.w3.org/2000/svg">
<circle cx="15" cy="15" r="15" fill="#272727"/>
<path d="M12.5194 9.66036C12.5194 9.76105 12.5194 9.82028 12.5194 9.87951C12.5194 13.6407 12.5194 17.396 12.5194 21.1571C12.5194 21.631 12.2233 21.9686 11.7909 21.9982C11.3526 22.0278 10.9794 21.6843 10.9735 21.2341C10.9676 20.2213 10.9735 19.2084 10.9735 18.1956C10.9735 15.4117 10.9735 12.6278 10.9735 9.84397C10.9735 9.79067 10.9735 9.74328 10.9735 9.65443C10.9143 9.71366 10.8728 9.74328 10.8373 9.78474C10.3457 10.2764 9.85403 10.7739 9.35649 11.2596C9.11956 11.4965 8.83525 11.5913 8.50948 11.4728C7.9764 11.2714 7.82832 10.6199 8.22517 10.2053C8.26663 10.1638 8.3081 10.1224 8.34364 10.0868C9.29133 9.13912 10.239 8.1855 11.1927 7.2378C11.5007 6.9298 11.9804 6.91795 12.2884 7.22003C13.2835 8.20919 14.2668 9.19835 15.2559 10.1934C15.5817 10.5251 15.5698 10.999 15.2559 11.3129C14.9538 11.615 14.4741 11.5913 14.1424 11.2655C13.6508 10.7739 13.1591 10.2823 12.6616 9.78474C12.6261 9.75513 12.5846 9.72551 12.5194 9.66036Z" fill="#FFD933"/>
<path d="M18.5373 13.1135C19.8878 13.1135 21.2442 13.1135 22.5947 13.1135C22.9027 13.1135 23.1455 13.2497 23.2818 13.5281C23.4298 13.8242 23.4002 14.1086 23.1988 14.3692C23.033 14.5765 22.8079 14.6594 22.5473 14.6594C20.4623 14.6594 18.3774 14.6594 16.2925 14.6594C15.6942 14.6594 15.096 14.6594 14.4978 14.6594C14.018 14.6594 13.6745 14.3218 13.6804 13.8598C13.6863 13.4333 14.0358 13.1135 14.5037 13.1135C15.8423 13.1075 17.1869 13.1135 18.5373 13.1135Z" fill="#FFD933"/>
<path d="M17.2757 17.6446C16.3576 17.6446 15.4395 17.6446 14.5214 17.6446C14.0653 17.6446 13.781 17.4255 13.6922 17.0109C13.6033 16.5962 13.8936 16.1757 14.3141 16.1105C14.3793 16.0987 14.4504 16.0928 14.5155 16.0928C16.3635 16.0928 18.2115 16.0928 20.0595 16.0928C20.563 16.0928 20.9006 16.4126 20.8947 16.8865C20.8947 17.2537 20.5985 17.5854 20.2372 17.6269C20.1069 17.6387 19.9825 17.6387 19.8522 17.6387C18.9875 17.6446 18.1286 17.6446 17.2757 17.6446Z" fill="#FFD933"/>
<path d="M16.0496 19.0899C16.5649 19.0899 17.0802 19.0899 17.5955 19.0899C18.0753 19.0899 18.407 19.4157 18.4129 19.8718C18.4129 20.3101 18.0694 20.6358 17.5955 20.6358C16.559 20.6358 15.5225 20.6358 14.4859 20.6358C14.018 20.6358 13.6744 20.2982 13.6744 19.8421C13.6744 19.4157 14.0239 19.0899 14.4859 19.084C15.0071 19.0899 15.5284 19.0899 16.0496 19.0899Z" fill="#FFD933"/>
</svg>
