<svg width="21" height="21" viewBox="0 0 21 21" fill="none" xmlns="http://www.w3.org/2000/svg">
<path d="M10.5 8.5C11.6 8.5 12.5 7.6 12.5 6.5V2.5C12.5 1.4 11.6 0.5 10.5 0.5C9.4 0.5 8.5 1.4 8.5 2.5V6.5C8.5 7.6 9.4 8.5 10.5 8.5Z" fill="#272727"/>
<path d="M17.6 3.4C17.3 3.1 17 3 16.5 3C15.7 3 15 3.7 15 4.5C15 4.9 15.2 5.3 15.4 5.6C16.7 6.9 17.4 8.6 17.4 10.5C17.4 14.4 14.3 17.5 10.4 17.5C6.5 17.5 3.4 14.4 3.4 10.5C3.4 8.6 4.2 6.8 5.5 5.6C5.8 5.3 6 4.9 6 4.5C6 3.7 5.3 3 4.5 3C4.1 3 3.7 3.2 3.4 3.4C1.6 5.2 0.5 7.7 0.5 10.5C0.5 16 5 20.5 10.5 20.5C16 20.5 20.5 16 20.5 10.5C20.5 7.7 19.4 5.2 17.6 3.4Z" fill="#272727"/>
</svg>
