<svg width="25" height="23" viewBox="0 0 25 23" fill="none" xmlns="http://www.w3.org/2000/svg">
<path d="M10.9877 4.91177H23.4431C23.856 4.91177 24.2521 4.7218 24.544 4.38365C24.836 4.0455 25 3.58687 25 3.10865C25 2.63044 24.836 2.17181 24.544 1.83366C24.2521 1.49551 23.856 1.30554 23.4431 1.30554H10.9877C10.5748 1.30554 10.1788 1.49551 9.8868 1.83366C9.59482 2.17181 9.43079 2.63044 9.43079 3.10865C9.43079 3.58687 9.59482 4.0455 9.8868 4.38365C10.1788 4.7218 10.5748 4.91177 10.9877 4.91177Z" fill="#272727"/>
<path d="M23.4431 9.71936H10.9877C10.5748 9.71936 10.1788 9.90933 9.8868 10.2475C9.59482 10.5856 9.43079 11.0443 9.43079 11.5225C9.43079 12.0007 9.59482 12.4593 9.8868 12.7975C10.1788 13.1356 10.5748 13.3256 10.9877 13.3256H23.4431C23.856 13.3256 24.2521 13.1356 24.544 12.7975C24.836 12.4593 25 12.0007 25 11.5225C25 11.0443 24.836 10.5856 24.544 10.2475C24.2521 9.90933 23.856 9.71936 23.4431 9.71936Z" fill="#272727"/>
<path d="M23.4431 18.1343H10.9877C10.5748 18.1343 10.1788 18.3242 9.8868 18.6624C9.59482 19.0005 9.43079 19.4592 9.43079 19.9374C9.43079 20.4156 9.59482 20.8742 9.8868 21.2124C10.1788 21.5505 10.5748 21.7405 10.9877 21.7405H23.4431C23.856 21.7405 24.2521 21.5505 24.544 21.2124C24.836 20.8742 25 20.4156 25 19.9374C25 19.4592 24.836 19.0005 24.544 18.6624C24.2521 18.3242 23.856 18.1343 23.4431 18.1343Z" fill="#272727"/>
<path d="M5.36805 4.91142C5.57331 4.91137 5.77394 4.84085 5.94459 4.70876C6.11524 4.57667 6.24824 4.38895 6.32678 4.16933C6.40532 3.94971 6.42588 3.70805 6.38585 3.47491C6.34581 3.24176 6.247 3.02759 6.10188 2.85948L3.93672 0.351951C3.74207 0.126597 3.47812 0 3.20289 0C2.92766 0 2.6637 0.126597 2.46906 0.351951L0.303898 2.85948C0.158783 3.02759 0.0599634 3.24176 0.0199322 3.47491C-0.0200989 3.70805 0.000455562 3.94971 0.0789972 4.16933C0.157539 4.38895 0.290541 4.57667 0.46119 4.70876C0.631839 4.84085 0.832473 4.91137 1.03773 4.91142H1.64597V18.1343H1.03773C0.832473 18.1343 0.631839 18.2048 0.46119 18.3369C0.290541 18.469 0.157539 18.6567 0.0789972 18.8764C0.000455562 19.096 -0.0200989 19.3376 0.0199322 19.5708C0.0599634 19.8039 0.158783 20.0181 0.303898 20.1862L2.43066 22.648C2.6253 22.8734 2.88926 23 3.16448 23C3.43971 23 3.70367 22.8734 3.89831 22.648L6.02403 20.1862C6.16921 20.018 6.26805 19.8037 6.30805 19.5705C6.34805 19.3372 6.32741 19.0955 6.24874 18.8758C6.17007 18.6561 6.0369 18.4684 5.8661 18.3364C5.69529 18.2044 5.49451 18.1341 5.28917 18.1343H4.75981V4.91142H5.36805Z" fill="#272727"/>
</svg>
