<svg width="60" height="60" viewBox="0 0 60 60" fill="none" xmlns="http://www.w3.org/2000/svg">
<path d="M28.1199 56.2507H5.62398C4.13241 56.2507 2.70193 55.6582 1.64723 54.6035C0.592525 53.5488 0 52.1183 0 50.6267L0 1.88553C0.00184744 1.51542 0.113207 1.15415 0.320044 0.847227C0.526881 0.540307 0.819941 0.30148 1.16229 0.160843C1.50369 0.0172823 1.87995 -0.0219406 2.24362 0.0481232C2.60728 0.118187 2.94205 0.294398 3.20567 0.554521L6.16763 3.53523C6.34191 3.71094 6.54925 3.8504 6.77769 3.94558C7.00614 4.04075 7.25116 4.08975 7.49864 4.08975C7.74612 4.08975 7.99115 4.04075 8.21959 3.94558C8.44804 3.8504 8.65538 3.71094 8.82965 3.53523L11.7916 0.554521C11.9659 0.378812 12.1732 0.239348 12.4017 0.144174C12.6301 0.0490003 12.8751 0 13.1226 0C13.3701 0 13.6151 0.0490003 13.8436 0.144174C14.072 0.239348 14.2794 0.378812 14.4536 0.554521L17.4156 3.53523C17.5899 3.71094 17.7972 3.8504 18.0257 3.94558C18.2541 4.04075 18.4991 4.08975 18.7466 4.08975C18.9941 4.08975 19.2391 4.04075 19.4676 3.94558C19.696 3.8504 19.9033 3.71094 20.0776 3.53523L23.0396 0.554521C23.2139 0.378812 23.4212 0.239348 23.6496 0.144174C23.8781 0.0490003 24.1231 0 24.3706 0C24.6181 0 24.8631 0.0490003 25.0915 0.144174C25.32 0.239348 25.5273 0.378812 25.7016 0.554521L28.6636 3.53523C28.8378 3.71094 29.0452 3.8504 29.2736 3.94558C29.5021 4.04075 29.7471 4.08975 29.9946 4.08975C30.242 4.08975 30.4871 4.04075 30.7155 3.94558C30.944 3.8504 31.1513 3.71094 31.3256 3.53523L34.2875 0.554521C34.4618 0.378812 34.6692 0.239348 34.8976 0.144174C35.126 0.0490003 35.3711 0 35.6185 0C35.866 0 36.1111 0.0490003 36.3395 0.144174C36.5679 0.239348 36.7753 0.378812 36.9496 0.554521L39.9115 3.53523C40.0858 3.71094 40.2931 3.8504 40.5216 3.94558C40.75 4.04075 40.9951 4.08975 41.2425 4.08975C41.49 4.08975 41.735 4.04075 41.9635 3.94558C42.1919 3.8504 42.3993 3.71094 42.5735 3.53523L45.5355 0.554521C45.7991 0.294398 46.1339 0.118187 46.4976 0.0481232C46.8612 -0.0219406 47.2375 0.0172823 47.5789 0.160843C47.9212 0.30148 48.2143 0.540307 48.4211 0.847227C48.628 1.15415 48.7393 1.51542 48.7412 1.88553V28.1308C48.7412 28.628 48.5437 29.1048 48.1921 29.4564C47.8405 29.8079 47.3637 30.0054 46.8665 30.0054C46.3693 30.0054 45.8925 29.8079 45.5409 29.4564C45.1894 29.1048 44.9918 28.628 44.9918 28.1308V6.40346C43.906 7.33085 42.5141 7.82142 41.0867 7.77985C39.6593 7.73828 38.2983 7.16752 37.2682 6.1785L35.6185 4.5288L33.9688 6.1785C32.9004 7.205 31.4762 7.77829 29.9946 7.77829C28.5129 7.77829 27.0887 7.205 26.0203 6.1785L24.3706 4.5288L22.7209 6.1785C21.6524 7.205 20.2283 7.77829 18.7466 7.77829C17.265 7.77829 15.8408 7.205 14.7723 6.1785L13.1226 4.5288L11.4729 6.1785C10.4429 7.16752 9.08189 7.73828 7.65449 7.77985C6.22709 7.82142 4.83521 7.33085 3.74932 6.40346V50.6267C3.74932 51.1239 3.94683 51.6007 4.2984 51.9523C4.64996 52.3038 5.12679 52.5014 5.62398 52.5014H28.1199C28.6171 52.5014 29.0939 52.6989 29.4455 53.0504C29.7971 53.402 29.9946 53.8788 29.9946 54.376C29.9946 54.8732 29.7971 55.35 29.4455 55.7016C29.0939 56.0532 28.6171 56.2507 28.1199 56.2507Z" fill="#FFD933"/>
<path d="M28.1199 46.8773H11.248C10.7508 46.8773 10.2739 46.6797 9.92238 46.3282C9.57081 45.9766 9.37331 45.4998 9.37331 45.0026C9.37331 44.5054 9.57081 44.0286 9.92238 43.677C10.2739 43.3254 10.7508 43.1279 11.248 43.1279H28.1199C28.6171 43.1279 29.0939 43.3254 29.4455 43.677C29.7971 44.0286 29.9946 44.5054 29.9946 45.0026C29.9946 45.4998 29.7971 45.9766 29.4455 46.3282C29.0939 46.6797 28.6171 46.8773 28.1199 46.8773Z" fill="#FFD933"/>
<path d="M51.4679 47.8039H42.2651C41.9939 47.8039 41.7338 47.7051 41.542 47.5293C41.3503 47.3535 41.2425 47.1151 41.2425 46.8665C41.2425 46.6179 41.3503 46.3795 41.542 46.2037C41.7338 46.028 41.9939 45.9292 42.2651 45.9292H51.4679C51.7391 45.9292 51.9992 46.028 52.191 46.2037C52.3828 46.3795 52.4905 46.6179 52.4905 46.8665C52.4905 47.1151 52.3828 47.3535 52.191 47.5293C51.9992 47.7051 51.7391 47.8039 51.4679 47.8039Z" fill="#FFD933"/>
<path d="M45.9292 51.4681L45.9292 42.2652C45.9292 41.994 46.0279 41.7339 46.2037 41.5422C46.3795 41.3504 46.6179 41.2427 46.8665 41.2427C47.1151 41.2427 47.3535 41.3504 47.5293 41.5422C47.7051 41.7339 47.8038 41.994 47.8038 42.2652L47.8038 51.4681C47.8038 51.7393 47.7051 51.9994 47.5293 52.1911C47.3535 52.3829 47.1151 52.4906 46.8665 52.4906C46.6179 52.4906 46.3795 52.3829 46.2037 52.1911C46.0279 51.9994 45.9292 51.7393 45.9292 51.4681Z" fill="#FFD933"/>
<path d="M28.1199 39.3787H11.248C10.7508 39.3787 10.2739 39.1812 9.92238 38.8296C9.57081 38.4781 9.37331 38.0012 9.37331 37.5041C9.37331 37.0069 9.57081 36.53 9.92238 36.1785C10.2739 35.8269 10.7508 35.6294 11.248 35.6294H28.1199C28.6171 35.6294 29.0939 35.8269 29.4455 36.1785C29.7971 36.53 29.9946 37.0069 29.9946 37.5041C29.9946 38.0012 29.7971 38.4781 29.4455 38.8296C29.0939 39.1812 28.6171 39.3787 28.1199 39.3787Z" fill="#FFD933"/>
<path d="M31.8692 31.8802H11.248C10.7508 31.8802 10.2739 31.6827 9.92238 31.3311C9.57081 30.9795 9.37331 30.5027 9.37331 30.0055C9.37331 29.5083 9.57081 29.0315 9.92238 28.6799C10.2739 28.3284 10.7508 28.1309 11.248 28.1309H31.8692C32.3664 28.1309 32.8433 28.3284 33.1948 28.6799C33.5464 29.0315 33.7439 29.5083 33.7439 30.0055C33.7439 30.5027 33.5464 30.9795 33.1948 31.3311C32.8433 31.6827 32.3664 31.8802 31.8692 31.8802Z" fill="#FFD933"/>
<path d="M37.4932 24.3816H11.248C10.7508 24.3816 10.2739 24.1841 9.92238 23.8326C9.57081 23.481 9.37331 23.0042 9.37331 22.507C9.37331 22.0098 9.57081 21.533 9.92238 21.1814C10.2739 20.8298 10.7508 20.6323 11.248 20.6323H37.4932C37.9904 20.6323 38.4672 20.8298 38.8188 21.1814C39.1704 21.533 39.3679 22.0098 39.3679 22.507C39.3679 23.0042 39.1704 23.481 38.8188 23.8326C38.4672 24.1841 37.9904 24.3816 37.4932 24.3816Z" fill="#FFD933"/>
<path d="M37.4932 16.8826H11.248C10.7508 16.8826 10.2739 16.6851 9.92238 16.3335C9.57081 15.982 9.37331 15.5052 9.37331 15.008C9.37331 14.5108 9.57081 14.0339 9.92238 13.6824C10.2739 13.3308 10.7508 13.1333 11.248 13.1333H37.4932C37.9904 13.1333 38.4672 13.3308 38.8188 13.6824C39.1704 14.0339 39.3679 14.5108 39.3679 15.008C39.3679 15.5052 39.1704 15.982 38.8188 16.3335C38.4672 16.6851 37.9904 16.8826 37.4932 16.8826Z" fill="#FFD933"/>
<path d="M54.3652 60.0001H39.3679C37.8763 60.0001 36.4458 59.4076 35.3911 58.3529C34.3364 57.2982 33.7439 55.8677 33.7439 54.3761V39.3789C33.7439 37.8873 34.3364 36.4568 35.3911 35.4021C36.4458 34.3474 37.8763 33.7549 39.3679 33.7549H54.3652C55.8567 33.7549 57.2872 34.3474 58.3419 35.4021C59.3966 36.4568 59.9891 37.8873 59.9891 39.3789V54.3761C59.9891 55.8677 59.3966 57.2982 58.3419 58.3529C57.2872 59.4076 55.8567 60.0001 54.3652 60.0001ZM39.3679 37.5042C38.8707 37.5042 38.3939 37.7017 38.0423 38.0533C37.6907 38.4048 37.4932 38.8817 37.4932 39.3789V54.3761C37.4932 54.8733 37.6907 55.3502 38.0423 55.7017C38.3939 56.0533 38.8707 56.2508 39.3679 56.2508H54.3652C54.8624 56.2508 55.3392 56.0533 55.6907 55.7017C56.0423 55.3502 56.2398 54.8733 56.2398 54.3761V39.3789C56.2398 38.8817 56.0423 38.4048 55.6907 38.0533C55.3392 37.7017 54.8624 37.5042 54.3652 37.5042H39.3679Z" fill="#FFD933"/>
</svg>
