<svg width="54" height="60" viewBox="0 0 54 60" fill="none" xmlns="http://www.w3.org/2000/svg">
<path d="M4.40419 54.3098C4.76267 54.1305 4.99312 54.0537 5.22357 53.9257C6.6831 53.1831 8.16823 52.4405 9.60215 51.6724C10.5752 51.1347 11.4714 51.1859 12.3932 51.8004C14.0319 52.9015 15.6963 53.9257 17.3351 55.0267C17.7704 55.334 18.1289 55.334 18.5898 55.1035C20.8687 53.9513 23.1476 52.8246 25.4265 51.6724C26.2971 51.2115 27.1165 51.2115 27.9871 51.6724C30.3172 52.8758 32.6729 54.0025 35.003 55.206C35.3871 55.4108 35.6688 55.3852 36.0273 55.1548C37.8709 54.0281 39.7145 52.9271 41.5581 51.8004C42.5055 51.2115 43.4017 51.1859 44.3491 51.7236C45.6294 52.4662 46.9609 53.1575 48.2668 53.8489C48.4717 53.9769 48.7021 54.0537 49.0606 54.2329C49.0606 53.7976 49.0606 53.4904 49.0606 53.1831C49.0606 39.3048 49.0606 25.4265 49.0606 11.5482C49.0606 10.1911 49.5983 9.3717 50.6481 9.06443C52.0053 8.65474 53.2855 9.60215 53.4136 11.0873C53.4392 11.2921 53.4136 11.497 53.4136 11.7018C53.4136 26.9372 53.4136 42.1983 53.4136 57.4337C53.4136 58.8932 52.8246 59.7638 51.57 59.9686C51.0578 60.0454 50.4689 59.8662 50.008 59.6358C47.9083 58.5603 45.8343 57.4081 43.7602 56.2558C43.2737 55.9997 42.9152 55.9485 42.4287 56.2558C40.6619 57.3568 38.8439 58.4067 37.0771 59.5077C36.1297 60.0967 35.2591 60.1223 34.2861 59.6102C32.0072 58.4323 29.677 57.3056 27.3981 56.1278C26.9116 55.8717 26.5275 55.8973 26.041 56.1278C23.7621 57.3056 21.432 58.4067 19.1531 59.6102C18.1289 60.1479 17.2583 60.0967 16.2852 59.4565C14.6465 58.3555 12.9821 57.3312 11.3177 56.2302C10.908 55.9741 10.6008 55.9485 10.1911 56.179C7.96338 57.3568 5.68447 58.4323 3.45677 59.6614C1.68998 60.6344 0 59.3797 0 57.5617C0.0256057 41.3789 -3.91094e-07 25.2216 0.0256053 9.03882C0.0256053 4.55782 2.76542 1.15226 7.09279 0.204846C7.75854 0.0512113 8.4755 0 9.16685 0C20.8175 0 32.4681 0 44.1187 0C45.4502 0 46.2696 0.53772 46.5768 1.61316C46.9609 2.97027 46.0135 4.25055 44.5284 4.35297C44.3235 4.37858 44.1187 4.35297 43.9138 4.35297C32.3144 4.35297 20.715 4.37858 9.11564 4.32737C6.40143 4.30176 4.35297 6.37583 4.37858 9.06443C4.42979 23.8389 4.40419 38.6134 4.40419 53.4136C4.40419 53.6696 4.40419 53.9257 4.40419 54.3098Z" fill="#FFD933"/>
<path d="M35.624 16.1316H10.9785C10.5116 16.1316 10.0638 15.9158 9.73367 15.5316C9.40353 15.1474 9.21806 14.6264 9.21806 14.0831C9.21806 13.5398 9.40353 13.0188 9.73367 12.6346C10.0638 12.2505 10.5116 12.0347 10.9785 12.0347H35.624C36.0909 12.0347 36.5386 12.2505 36.8688 12.6346C37.1989 13.0188 37.3844 13.5398 37.3844 14.0831C37.3844 14.6264 37.1989 15.1474 36.8688 15.5316C36.5386 15.9158 36.0909 16.1316 35.624 16.1316Z" fill="#FFD933"/>
<path d="M35.624 25.3498H10.9785C10.5116 25.3498 10.0638 25.134 9.73367 24.7499C9.40353 24.3657 9.21806 23.8447 9.21806 23.3014C9.21806 22.7581 9.40353 22.2371 9.73367 21.8529C10.0638 21.4687 10.5116 21.2529 10.9785 21.2529H35.624C36.0909 21.2529 36.5386 21.4687 36.8688 21.8529C37.1989 22.2371 37.3844 22.7581 37.3844 23.3014C37.3844 23.8447 37.1989 24.3657 36.8688 24.7499C36.5386 25.134 36.0909 25.3498 35.624 25.3498Z" fill="#FFD933"/>
<path d="M35.624 34.5676H10.9785C10.5116 34.5676 10.0638 34.3518 9.73367 33.9676C9.40353 33.5835 9.21806 33.0624 9.21806 32.5192C9.21806 31.9759 9.40353 31.4548 9.73367 31.0707C10.0638 30.6865 10.5116 30.4707 10.9785 30.4707H35.624C36.0909 30.4707 36.5386 30.6865 36.8688 31.0707C37.1989 31.4548 37.3844 31.9759 37.3844 32.5192C37.3844 33.0624 37.1989 33.5835 36.8688 33.9676C36.5386 34.3518 36.0909 34.5676 35.624 34.5676Z" fill="#FFD933"/>
<path d="M35.624 43.7859H10.9785C10.5116 43.7859 10.0638 43.5701 9.73367 43.1859C9.40353 42.8017 9.21806 42.2807 9.21806 41.7374C9.21806 41.1941 9.40353 40.6731 9.73367 40.2889C10.0638 39.9048 10.5116 39.689 10.9785 39.689H35.624C36.0909 39.689 36.5386 39.9048 36.8688 40.2889C37.1989 40.6731 37.3844 41.1941 37.3844 41.7374C37.3844 42.2807 37.1989 42.8017 36.8688 43.1859C36.5386 43.5701 36.0909 43.7859 35.624 43.7859Z" fill="#FFD933"/>
<circle cx="41.4813" cy="14.0831" r="2.04846" fill="#FFD933"/>
<circle cx="41.4813" cy="23.3014" r="2.04846" fill="#FFD933"/>
<circle cx="41.4813" cy="32.5192" r="2.04846" fill="#FFD933"/>
<circle cx="41.4813" cy="41.7374" r="2.04846" fill="#FFD933"/>
</svg>
