<svg width="60" height="60" viewBox="0 0 60 60" fill="none" xmlns="http://www.w3.org/2000/svg">
<path d="M50.0243 6.22599C47.2863 5.86689 44.7277 5.55269 42.1692 5.23848C40.6879 5.05894 39.6107 3.75723 39.7902 2.41064C40.0146 0.794721 41.3164 -0.192782 42.8874 0.0316506C47.6005 0.615175 52.2687 1.24359 56.9817 1.82711C58.867 2.05154 59.7647 3.35325 59.5403 5.1936C59.1812 7.97656 58.867 10.8044 58.5079 13.5874C58.2834 15.5624 58.059 17.5823 57.7897 19.5573C57.6101 20.9488 56.3533 21.8465 54.917 21.7567C53.5704 21.6669 52.4931 20.5897 52.5829 19.2431C52.6726 17.5823 52.8971 15.9664 53.1215 14.3056C53.2562 13.1385 53.3908 11.9715 53.5704 10.7146C52.4033 11.6124 51.326 12.4652 50.2488 13.3181C43.6953 18.3005 37.2766 23.3277 30.8129 28.3101C29.1521 29.6119 27.4015 29.2528 26.3243 27.4573C25.3368 25.7965 24.3493 24.1357 23.3618 22.4749C23.272 22.2954 23.1373 22.1158 23.0027 21.8914C21.6561 22.9686 20.3095 24.001 18.9629 25.0334C14.2498 28.7141 9.53671 32.3948 4.82363 36.0306C3.02817 37.4221 0.694073 36.7488 0.110549 34.684C-0.203657 33.5619 0.155435 32.3499 1.14294 31.6317C6.48443 27.5022 11.781 23.3726 17.1225 19.288C18.7833 17.9862 20.4441 16.7294 22.1049 15.4726C23.676 14.2607 25.4714 14.5749 26.5038 16.2806C27.4913 17.9414 28.4788 19.647 29.4663 21.3078C29.601 21.5323 29.6908 21.7118 29.8703 21.9811C36.5135 16.6845 43.2016 11.5226 50.0243 6.22599Z" fill="#FFD933"/>
<path d="M57.2062 60C54.0192 60 50.8772 60 47.6902 60C47.6902 49.0926 47.6902 38.1852 47.6902 27.2329C50.8323 27.2329 53.9743 27.2329 57.2062 27.2329C57.2062 38.1403 57.2062 49.0477 57.2062 60Z" fill="#FFD933"/>
<path d="M42.5283 59.9998C39.2965 59.9998 36.1544 59.9998 32.9675 59.9998C32.9675 51.0674 32.9675 42.135 32.9675 33.1577C36.1544 33.1577 39.2965 33.1577 42.5283 33.1577C42.5283 42.0901 42.5283 51.0225 42.5283 59.9998Z" fill="#FFD933"/>
<path d="M27.3567 60.0002C24.1697 60.0002 21.0277 60.0002 17.8407 60.0002C17.8407 52.4593 17.8407 44.9183 17.8407 37.3325C20.9828 37.3325 24.1697 37.3325 27.3567 37.3325C27.3567 44.8734 27.3567 52.4144 27.3567 60.0002Z" fill="#FFD933"/>
<path d="M12.9032 60.0001C9.71626 60.0001 6.57421 60.0001 3.38727 60.0001C3.38727 53.8507 3.38727 47.7012 3.38727 41.5518C6.57421 41.5518 9.71626 41.5518 12.9032 41.5518C12.9032 47.7012 12.9032 53.8058 12.9032 60.0001Z" fill="#FFD933"/>
</svg>
