<svg width="57" height="61" viewBox="0 0 57 61" fill="none" xmlns="http://www.w3.org/2000/svg">
<path fill-rule="evenodd" clip-rule="evenodd" d="M29.4929 33.5075C29.4929 32.7186 30.1325 32.079 30.9215 32.079H40.027C40.816 32.079 41.4556 32.7186 41.4556 33.5075V59.0714C41.4556 59.8604 40.816 60.5 40.027 60.5H30.9215C30.1325 60.5 29.4929 59.8604 29.4929 59.0714V33.5075ZM32.3501 34.9361V57.6429H38.5985V34.9361H32.3501Z" fill="#FFD933"/>
<path fill-rule="evenodd" clip-rule="evenodd" d="M15.0864 37.4831C15.0864 36.6942 15.726 36.0546 16.515 36.0546H25.5778C26.3668 36.0546 27.0064 36.6942 27.0064 37.4831V59.0714C27.0064 59.8603 26.3668 60.4999 25.5778 60.4999H16.515C15.726 60.4999 15.0864 59.8603 15.0864 59.0714V37.4831ZM17.9436 38.9117V57.6428H24.1492V38.9117H17.9436Z" fill="#FFD933"/>
<path fill-rule="evenodd" clip-rule="evenodd" d="M0.476074 41.5015C0.476074 40.7125 1.11567 40.0729 1.90464 40.0729H10.9674C11.7564 40.0729 12.396 40.7125 12.396 41.5015V59.0713C12.396 59.8603 11.7564 60.4999 10.9674 60.4999H1.90464C1.11567 60.4999 0.476074 59.8603 0.476074 59.0713V41.5015ZM3.33321 42.9301V57.6428H9.53886V42.9301H3.33321Z" fill="#FFD933"/>
<path fill-rule="evenodd" clip-rule="evenodd" d="M43.5144 27.8647C43.5144 27.0757 44.154 26.4361 44.943 26.4361H54.0058C54.7947 26.4361 55.4343 27.0757 55.4343 27.8647V59.0714C55.4343 59.8604 54.7947 60.5 54.0058 60.5H44.943C44.154 60.5 43.5144 59.8604 43.5144 59.0714V27.8647ZM46.3715 29.2932V57.6428H52.5772V29.2932H46.3715Z" fill="#FFD933"/>
<path fill-rule="evenodd" clip-rule="evenodd" d="M54.3819 1.55477C55.1518 1.59018 55.7476 2.2521 55.7126 3.03319L55.1439 15.7619C55.109 16.543 54.4566 17.1475 53.6867 17.1121C52.9169 17.0767 52.3211 16.4148 52.356 15.6337L52.7722 6.31938L30.0572 27.3673C29.5934 27.797 28.9038 27.8594 28.3724 27.5197L19.9547 22.1384L2.11413 35.2619L0.476074 32.9694L19.0809 19.2838C19.5425 18.9443 20.1613 18.9238 20.6437 19.2322L28.9604 24.5489L50.8903 4.22857L41.7102 3.80628C40.9403 3.77086 40.3446 3.10895 40.3795 2.32786C40.4144 1.54676 41.0667 0.942263 41.8366 0.977676L54.3819 1.55477Z" fill="#FFD933"/>
<path fill-rule="evenodd" clip-rule="evenodd" d="M0.476223 32.9695L19.081 19.2838C19.5426 18.9443 20.1615 18.9238 20.6439 19.2322L28.9605 24.5489L50.8904 4.22858L41.7103 3.80629C40.9405 3.77088 40.3447 3.10896 40.3796 2.32787C40.4145 1.54677 41.0669 0.942274 41.8367 0.977688L54.3821 1.55478C55.1519 1.5902 55.7477 2.25211 55.7128 3.03321L55.144 15.7619C55.1091 16.543 54.4567 17.1475 53.6869 17.1121C52.917 17.0767 52.3213 16.4148 52.3562 15.6337L52.7724 6.31939L30.0573 27.3673C29.5935 27.797 28.9039 27.8594 28.3725 27.5197L19.9548 22.1384L2.11428 35.2619L0.476223 32.9695ZM19.9737 22.7157L2.39645 35.6455C2.2938 35.721 2.16517 35.7522 2.03932 35.7321C1.91348 35.7121 1.80093 35.6424 1.72684 35.5387L0.0887805 33.2463C-0.0626299 33.0344 -0.0157294 32.7402 0.194057 32.5859L18.7988 18.9003C19.4189 18.4441 20.2518 18.4164 20.9004 18.831L28.9069 23.9495L49.7328 4.65203L41.6885 4.28198C40.6497 4.23419 39.8575 3.3437 39.9039 2.30661C39.9503 1.26906 40.8193 0.454193 41.8586 0.502001L54.4039 1.0791C55.4427 1.12688 56.2349 2.01737 56.1885 3.05446L55.6197 15.7832C55.5734 16.8207 54.7043 17.6356 53.665 17.5878C52.6262 17.54 51.8341 16.6495 51.8804 15.6124L52.2449 7.45738L30.381 27.7166C29.7587 28.2931 28.8307 28.3778 28.116 27.9209L19.9737 22.7157Z" fill="#FFD933"/>
</svg>
