<svg width="61" height="61" viewBox="0 0 61 61" fill="none" xmlns="http://www.w3.org/2000/svg">
<path d="M26.6429 51.8056C26.4012 51.8056 26.1293 51.8056 25.8877 51.8056C17.9129 51.8056 9.96842 51.8056 1.99368 51.8056C0.45311 51.8056 0 51.3525 0 49.8119C0 35.403 0 20.9941 0 6.6154C0 5.01442 0.422903 4.59151 2.02389 4.59151C10.6632 4.59151 19.3025 4.59151 27.9116 4.59151C28.2136 4.59151 28.5157 4.59151 28.9688 4.59151C28.9688 3.89675 28.9688 3.2926 28.9688 2.65824C28.9688 2.23534 28.9386 1.78223 28.999 1.35933C29.0897 0.513525 29.6938 0 30.4792 0C31.2646 0 31.8989 0.513525 31.9594 1.35933C32.0198 2.14472 31.9896 2.93011 31.9896 3.7155C31.9896 3.98737 31.9896 4.22903 31.9896 4.59151C32.3823 4.59151 32.6843 4.59151 32.9864 4.59151C41.6559 4.59151 50.3556 4.59151 59.0251 4.59151C60.5355 4.59151 60.9886 5.04462 60.9886 6.55499C60.9886 20.9941 60.9886 35.4634 60.9886 49.9025C60.9886 51.3827 60.5355 51.8358 58.9949 51.8358C51.0504 51.8358 43.1059 51.8358 35.1613 51.8358C34.8895 51.8358 34.6176 51.8358 34.1343 51.8358C34.4364 52.1378 34.6176 52.3191 34.7686 52.5003C36.6113 54.343 38.4841 56.2158 40.3268 58.0585C40.4476 58.1793 40.5986 58.3303 40.7195 58.4814C41.2632 59.1459 41.233 60.0522 40.6289 60.5959C40.0549 61.1396 39.1789 61.1396 38.5748 60.5657C37.5175 59.5386 36.4904 58.4814 35.4332 57.4241C33.802 55.7929 32.1708 54.1617 30.5094 52.4701C30.2979 52.6816 30.0865 52.8326 29.9053 53.0139C27.4887 55.4304 25.0419 57.8772 22.6253 60.2938C22.3534 60.5657 21.9909 60.8376 21.6284 60.9282C20.9639 61.1094 20.3899 60.8678 20.0577 60.2334C19.6952 59.5991 19.7556 58.9647 20.2389 58.4512C20.8128 57.847 21.417 57.2731 21.9909 56.6689C23.5617 55.0982 25.1325 53.5274 26.7033 51.9868C26.6731 51.9264 26.6731 51.866 26.6429 51.8056ZM57.9679 7.61225C39.632 7.61225 21.3566 7.61225 3.08115 7.61225C3.08115 21.3566 3.08115 35.0405 3.08115 48.7546C21.417 48.7546 39.6924 48.7546 57.9679 48.7546C57.9679 35.0405 57.9679 21.3566 57.9679 7.61225Z" fill="#FFD933"/>
<path d="M44.2235 10.633C50.0837 10.6027 54.9169 15.4359 54.9169 21.3263C54.9169 27.1866 50.0837 31.9895 44.2537 31.9895C38.3633 31.9895 33.5301 27.1564 33.5603 21.2961C33.5905 15.4057 38.3633 10.6632 44.2235 10.633ZM42.7132 13.9256C40.6893 14.0162 38.2123 15.9494 37.2456 18.215C36.1884 20.7222 36.3696 23.169 37.8498 25.5856C38.7862 24.6492 39.6018 23.6221 40.5986 22.8669C42.3507 21.5378 43.0152 19.8764 42.7434 17.7015C42.5923 16.463 42.7132 15.1641 42.7132 13.9256ZM50.5973 25.5856C52.1076 23.0784 52.3191 20.5712 51.1108 18.0035C50.0535 15.7682 48.2713 14.4089 45.7641 13.8047C45.7641 14.1672 45.7641 14.4391 45.7641 14.6807C45.7641 16.2213 45.8245 17.7921 45.7339 19.3327C45.6735 20.3295 46.0058 21.0243 46.7307 21.6888C48.0296 22.9273 49.2681 24.2263 50.5973 25.5856ZM48.3317 27.7303C46.9724 26.371 45.5829 24.9814 44.1329 23.5617C42.7736 24.8606 41.3538 26.2199 39.9341 27.6095C42.4715 29.3917 46.2474 29.3615 48.3317 27.7303Z" fill="#FFD933"/>
<path d="M15.1943 22.1116C15.1943 25.2532 15.1943 28.3947 15.1943 31.5363C15.1943 33.0466 14.7412 33.4696 13.2308 33.4696C11.4788 33.4696 9.69656 33.4696 7.94453 33.4696C6.61541 33.4696 6.10188 32.956 6.10188 31.5967C6.10188 26.25 6.10188 20.8731 6.10188 15.5264C6.10188 14.4993 6.10188 13.4723 6.10188 12.4453C6.13209 11.1765 6.67582 10.6328 7.94453 10.6328C9.75697 10.6328 11.5694 10.6328 13.3818 10.6328C14.6808 10.6328 15.1943 11.1765 15.1943 12.4453C15.1943 15.6774 15.1943 18.9096 15.1943 22.1116ZM12.1736 13.714C11.1465 13.714 10.1799 13.714 9.18303 13.714C9.18303 19.3023 9.18303 24.8605 9.18303 30.4488C10.2101 30.4488 11.1767 30.4488 12.1736 30.4488C12.1736 24.8605 12.1736 19.3325 12.1736 13.714Z" fill="#FFD933"/>
<path d="M28.9386 25.1928C28.9386 27.3678 28.9386 29.5427 28.9386 31.6874C28.9386 32.9561 28.4251 33.4697 27.1866 33.4697C25.3137 33.4697 23.4107 33.4697 21.5378 33.4697C20.4202 33.4697 19.8462 32.9259 19.8462 31.8083C19.816 27.3376 19.816 22.8971 19.8462 18.4264C19.8462 17.2785 20.4504 16.7348 21.5982 16.7046C23.4711 16.7046 25.3742 16.7046 27.247 16.7046C28.3949 16.7046 28.9688 17.2785 28.9688 18.4264C28.9386 20.7222 28.9386 22.9575 28.9386 25.1928ZM22.8972 30.4489C23.9242 30.4489 24.8908 30.4489 25.8877 30.4489C25.8877 26.8845 25.8877 23.3502 25.8877 19.8159C24.8606 19.8159 23.894 19.8159 22.8972 19.8159C22.8972 23.3804 22.8972 26.8845 22.8972 30.4489Z" fill="#FFD933"/>
<path d="M28.8782 45.7339C28.6063 45.7339 28.3345 45.7339 28.0928 45.7339C21.0545 45.7339 13.986 45.7339 6.94769 45.7339C6.25292 45.7339 6.01126 45.5527 6.07167 44.8579C6.13209 44.1632 5.86022 43.1965 6.22271 42.8643C6.61541 42.5018 7.55183 42.683 8.27681 42.683C14.8016 42.683 21.3264 42.683 27.8512 42.683C28.1834 42.683 28.5157 42.683 28.8782 42.683C28.8782 43.7403 28.8782 44.6767 28.8782 45.7339Z" fill="#FFD933"/>
<path d="M6.13209 39.5717C6.13209 38.5749 6.13209 37.6384 6.13209 36.6416C13.7443 36.6416 21.2962 36.6416 28.9084 36.6416C28.9084 37.6384 28.9084 38.5749 28.9084 39.5717C21.3264 39.5717 13.7745 39.5717 6.13209 39.5717Z" fill="#FFD933"/>
<path d="M53.3461 42.7432C53.3461 43.7098 53.3461 44.6462 53.3461 45.6733C47.2745 45.6733 41.233 45.6733 35.1311 45.6733C35.1311 44.7066 35.1311 43.7702 35.1311 42.7432C41.2028 42.7432 47.2443 42.7432 53.3461 42.7432Z" fill="#FFD933"/>
<path d="M45.7339 38.1217C45.7339 38.9373 45.0391 39.6321 44.2235 39.6019C43.4079 39.6019 42.7434 38.9071 42.7434 38.0915C42.7434 37.2457 43.4079 36.6113 44.2537 36.6113C45.0995 36.6415 45.7339 37.2759 45.7339 38.1217Z" fill="#FFD933"/>
<path d="M51.8962 36.6113C52.7118 36.6113 53.4066 37.3061 53.3764 38.1217C53.3764 38.9071 52.6514 39.6321 51.8358 39.6019C51.0202 39.6019 50.3556 38.9071 50.3556 38.0613C50.3858 37.2457 51.0504 36.6113 51.8962 36.6113Z" fill="#FFD933"/>
<path d="M38.0914 38.1822C38.0612 38.9978 37.3363 39.6624 36.5509 39.6322C35.7353 39.602 35.0707 38.8468 35.1009 38.0614C35.1311 37.2458 35.8259 36.6115 36.6717 36.6417C37.5175 36.6417 38.1217 37.3062 38.0914 38.1822Z" fill="#FFD933"/>
</svg>
