<svg width="60" height="60" viewBox="0 0 60 60" fill="none" xmlns="http://www.w3.org/2000/svg">
<g clip-path="url(#clip0_892_3651)">
<path d="M22.5 59.9984H2.5C1.83696 59.9984 1.20107 59.735 0.732233 59.2662C0.263392 58.7974 0 58.1615 0 57.4985C0 56.8354 0.263392 56.1995 0.732233 55.7307C1.20107 55.2619 1.83696 54.9985 2.5 54.9985H22.5C23.163 54.9985 23.7989 55.2619 24.2678 55.7307C24.7366 56.1995 25 56.8354 25 57.4985C25 58.1615 24.7366 58.7974 24.2678 59.2662C23.7989 59.735 23.163 59.9984 22.5 59.9984Z" fill="#FFD933"/>
<path d="M17.5 50H2.5C1.83696 50 1.20107 49.7366 0.732233 49.2678C0.263392 48.799 0 48.1631 0 47.5C0 46.837 0.263392 46.2011 0.732233 45.7322C1.20107 45.2634 1.83696 45 2.5 45H17.5C18.163 45 18.7989 45.2634 19.2678 45.7322C19.7366 46.2011 20 46.837 20 47.5C20 48.1631 19.7366 48.799 19.2678 49.2678C18.7989 49.7366 18.163 50 17.5 50Z" fill="#FFD933"/>
<path d="M12.5 40.0016H2.5C1.83696 40.0016 1.20107 39.7382 0.732233 39.2693C0.263392 38.8005 0 38.1646 0 37.5015C0 36.8385 0.263392 36.2026 0.732233 35.7338C1.20107 35.2649 1.83696 35.0015 2.5 35.0015H12.5C13.163 35.0015 13.7989 35.2649 14.2678 35.7338C14.7366 36.2026 15 36.8385 15 37.5015C15 38.1646 14.7366 38.8005 14.2678 39.2693C13.7989 39.7382 13.163 40.0016 12.5 40.0016Z" fill="#FFD933"/>
<path d="M32.5004 59.8864C31.8374 59.916 31.1898 59.6809 30.7001 59.2329C30.2104 58.7849 29.9187 58.1607 29.8892 57.4977C29.8597 56.8347 30.0947 56.187 30.5427 55.6973C30.9907 55.2076 31.6149 54.916 32.2779 54.8864C37.009 54.4535 41.5189 52.6815 45.2792 49.7779C49.0396 46.8743 51.8947 42.9593 53.5102 38.4915C55.1257 34.0237 55.4347 29.1881 54.401 24.551C53.3673 19.9139 51.0337 15.6673 47.6735 12.3087C44.3134 8.95007 40.0658 6.61843 35.4282 5.58687C30.7906 4.5553 25.9551 4.86653 21.4881 6.48409C17.021 8.10166 13.1074 10.9586 10.2055 14.7203C7.30361 18.4819 5.53366 22.9926 5.10294 27.7239C5.04326 28.3843 4.7237 28.994 4.21454 29.4187C3.70538 29.8435 3.04833 30.0486 2.38794 29.9889C1.72755 29.9293 1.11792 29.6097 0.693149 29.1005C0.26838 28.5914 0.0632713 27.9343 0.122945 27.2739C0.820166 19.5822 4.45695 12.4557 10.2763 7.37786C16.0956 2.30002 23.649 -0.337895 31.3643 0.0132241C39.0796 0.364343 46.3622 3.67744 51.6962 9.26286C57.0302 14.8483 60.0047 22.2757 60.0004 29.9989C60.0387 37.4948 57.254 44.7304 52.2001 50.2665C47.1463 55.8025 40.1937 59.2333 32.7254 59.8764C32.6504 59.8839 32.5729 59.8864 32.5004 59.8864Z" fill="#FFD933"/>
<path d="M30.0005 15C29.3374 15 28.7016 15.2634 28.2327 15.7322C27.7639 16.2011 27.5005 16.837 27.5005 17.5V30C27.5006 30.663 27.7641 31.2988 28.233 31.7675L35.733 39.2675C36.2045 39.7229 36.836 39.9749 37.4915 39.9692C38.147 39.9635 38.774 39.7006 39.2375 39.2371C39.7011 38.7735 39.964 38.1465 39.9697 37.491C39.9754 36.8355 39.7234 36.204 39.268 35.7325L32.5005 28.965V17.5C32.5005 16.837 32.2371 16.2011 31.7683 15.7322C31.2994 15.2634 30.6635 15 30.0005 15Z" fill="#FFD933"/>
</g>
<defs>
<clipPath id="clip0_892_3651">
<rect width="60" height="60" fill="white"/>
</clipPath>
</defs>
</svg>
